<svg xmlns="http://www.w3.org/2000/svg" width="96" height="96" viewBox="0 0 96 96"><g stroke="#263a48" stroke-width="3.2" stroke-linejoin="round" stroke-linecap="round"><path d="M31 31Q40 24 55 37Q55 52 20 86Q13 91 15 80Q18 47 31 31Z" fill="#f89a35"/><path d="M36 38Q31 46 25 63" fill="none" stroke="#ffd67d" stroke-width="5"/><path d="M41 47l8 6m-18 6 7 5m-15 7 6 4" stroke="#c36924"/><path d="M42 34Q29 19 39 8Q50 14 49 30Q48 13 62 8Q70 20 55 33Q66 20 80 29Q75 45 53 39Z" fill="#5ba84c"/><path d="M50 34L59 18" stroke="#b2d873"/></g></svg>