<svg xmlns="http://www.w3.org/2000/svg" width="96" height="96" viewBox="0 0 96 96"><g stroke="#263a48" stroke-width="3.2" stroke-linejoin="round" stroke-linecap="round"><path d="M26 66Q24 30 42 13Q56 6 68 21Q76 45 65 72L46 88Z" fill="#ffd54d"/><g stroke="#e7a12a" stroke-width="3"><path d="M39 28l27 4m-31 10 31 4m-31 10 29 4M46 20l-7 50m17-49-7 49m17-42-7 40"/></g><path d="M45 87Q21 87 15 45Q37 58 45 87Z" fill="#78b548"/><path d="M45 87Q77 84 82 39Q54 53 45 87Z" fill="#5c9f3c"/><path d="M45 85L24 60M45 85L72 54" stroke="#bbd97a"/></g></svg>